<svg width="66" height="22" viewBox="0 0 66 22" fill="none" xmlns="http://www.w3.org/2000/svg">
<g clip-path="url(#clip0_564_91)">
<path d="M28.774 19.962C30.034 21.348 31.654 21.96 34.102 21.96C35.902 21.96 37.414 21.582 38.386 20.898C39.646 20.016 40.258 18.558 40.258 16.398V10.08C40.258 9.018 40.294 8.388 40.402 7.578H36.874V7.956C36.874 8.154 36.874 8.208 36.874 8.352C35.902 7.614 34.93 7.308 33.598 7.308C30.52 7.308 28.486 9.414 28.486 12.618C28.486 15.894 30.466 17.946 33.598 17.946C34.984 17.946 35.956 17.586 36.874 16.758C36.838 17.712 36.676 18.252 36.298 18.684C35.866 19.206 35.092 19.476 34.102 19.476C32.914 19.476 31.996 19.062 31.366 18.252L28.774 19.962ZM31.906 12.636C31.906 10.962 32.842 9.864 34.282 9.864C35.74 9.864 36.802 11.016 36.802 12.618C36.802 14.22 35.74 15.354 34.264 15.354C32.842 15.354 31.906 14.292 31.906 12.636ZM46.0394 18.558C45.9314 17.622 45.8954 16.866 45.8954 15.84V12.186C46.6154 10.998 47.5874 10.314 48.6134 10.314C49.1174 10.314 49.5134 10.476 49.7654 10.8C49.9814 11.106 50.0534 11.43 50.0534 12.15V15.84C50.0534 16.938 50.0174 17.694 49.9094 18.558H53.6534C53.5634 17.802 53.5094 16.902 53.5094 15.858V11.34C53.5094 9.918 53.2034 9.036 52.4834 8.316C51.8174 7.65 50.8454 7.308 49.6214 7.308C48.0914 7.308 46.9574 7.758 45.8774 8.802C45.8774 8.64 45.8954 8.352 45.8954 8.208V6.3C45.8954 5.022 45.9314 4.374 46.0394 3.582H42.3134C42.4214 4.284 42.4574 5.058 42.4574 6.3V15.84C42.4574 16.956 42.4214 17.712 42.3134 18.558H46.0394Z" fill="white"/>
<path d="M1.116 3.582C1.224 4.374 1.26 4.896 1.26 6.246V15.894C1.26 17.1 1.224 17.856 1.116 18.558H5.076C4.968 17.802 4.932 17.136 4.932 15.894V6.246C4.932 4.932 4.968 4.32 5.076 3.582H1.116Z" fill="white"/>
<path d="M10.12 18.372C10.048 17.748 10.024 17.244 10.024 16.56V14.136C10.54 13.296 11.14 12.876 11.812 12.876C12.172 12.876 12.448 12.996 12.604 13.212C12.748 13.416 12.796 13.62 12.796 14.1V16.56C12.796 17.292 12.772 17.796 12.7 18.372H15.196C15.136 17.868 15.1 17.268 15.1 16.572V13.56C15.1 12.612 14.896 12.024 14.416 11.544C13.972 11.1 13.312 10.872 12.484 10.872C11.5 10.872 10.768 11.172 10.012 11.892C10.012 11.808 10.024 11.628 10.024 11.556V11.052H7.636C7.708 11.532 7.732 12.036 7.732 12.864V16.56C7.732 17.304 7.708 17.808 7.636 18.372H10.12ZM16.1725 16.188C16.2925 16.764 16.4125 17.052 16.6525 17.388C17.2285 18.18 18.2965 18.588 19.8085 18.588C21.0925 18.588 22.0765 18.288 22.6525 17.712C23.0485 17.328 23.2645 16.752 23.2645 16.116C23.2645 15.252 22.8925 14.664 22.1125 14.28C21.6925 14.064 21.3205 13.956 20.1445 13.704C18.9565 13.44 18.7045 13.32 18.7045 12.996C18.7045 12.684 19.0885 12.48 19.7125 12.48C20.3605 12.48 20.6605 12.696 20.7205 13.188L23.0365 12.936C22.8445 12.264 22.6525 11.916 22.2565 11.568C21.6925 11.052 20.8405 10.8 19.7005 10.8C17.6965 10.8 16.4845 11.676 16.4845 13.116C16.4845 13.524 16.5925 13.932 16.7845 14.256C17.0125 14.616 17.4085 14.892 17.9845 15.108C18.3805 15.24 18.8485 15.36 19.7605 15.54C20.4205 15.672 20.5765 15.72 20.7445 15.816C20.9125 15.912 21.0085 16.068 21.0085 16.248C21.0085 16.62 20.6005 16.824 19.8805 16.824C19.0765 16.824 18.6685 16.548 18.5485 15.924L16.1725 16.188ZM24.3361 8.388V10.188H26.7721V8.388H24.3361ZM24.3001 11.052C24.3721 11.592 24.3961 12.084 24.3961 12.864V16.56C24.3961 17.328 24.3721 17.784 24.3001 18.372H26.8081C26.7481 17.856 26.7121 17.208 26.7121 16.56V12.864C26.7121 12.024 26.7361 11.544 26.8081 11.052H24.3001Z" fill="white"/>
<path d="M57.448 18C57.384 18 57.32 17.976 57.256 17.928C57.208 17.88 57.192 17.808 57.208 17.712L58.6 12.528H53.416C53.272 12.528 53.2 12.456 53.2 12.312C53.2 12.12 53.296 12.024 53.488 12.024H58.744L60.16 6.792C60.208 6.632 60.296 6.552 60.424 6.552C60.504 6.552 60.568 6.576 60.616 6.624C60.68 6.672 60.696 6.744 60.664 6.84L59.272 12.024H64.456C64.6 12.024 64.672 12.096 64.672 12.24C64.672 12.432 64.576 12.528 64.384 12.528H59.128L57.712 17.76C57.664 17.92 57.576 18 57.448 18Z" fill="white"/>
</g>
<defs>
<clipPath id="clip0_564_91">
<rect width="66" height="22" fill="white"/>
</clipPath>
</defs>
</svg>
